<?xml version="1.0" encoding="utf-8"?>
<!-- Generator: Adobe Illustrator 21.1.0, SVG Export Plug-In . SVG Version: 6.00 Build 0)  -->
<svg version="1.1" id="Layer_1" xmlns="http://www.w3.org/2000/svg" xmlns:xlink="http://www.w3.org/1999/xlink" x="0px" y="0px"
	 viewBox="0 0 424 138.5" style="enable-background:new 0 0 424 138.5;" xml:space="preserve">
<style type="text/css">
	.st0{fill:#F99B2C;}
	.st1{fill:#F47B26;}
	.st2{fill:#EB6825;}
	.st3{fill:#E15928;}
	.st4{fill:#F78D28;}
	.st5{fill:url(#SVGID_1_);}
	.st6{fill:url(#SVGID_2_);}
	.st7{fill:#FFFFFF;}
	.st8{fill:#AEADAE;}
	.st9{fill:#231F20;}
	.st10{fill:#FF9012;}
</style>
<g>
	<path class="st0" d="M376.4,28.8c0,0,6.6,8,14,7.6c7.4-0.4,11.1-6.6,9.6-12c0,0,9.2,17-7.7,17.6C377.4,42.5,376.4,28.8,376.4,28.8z
		"/>
	<g>
		<g>
			<path class="st0" d="M406.8,35C406.8,35,406.8,35,406.8,35l0-4.3c-0.3-1.3-1-9.5-13.4-12.4c-0.5-0.1-0.8,0-0.2,0.3
				c4,1.9,6.3,4.8,7.1,7.9l0.4-0.1c0,0,0,0.1,0.1,0.3c0,0.2,0.1,0.5,0.2,0.8c0.1,0.7,0.3,1.7,0.3,3c0,1.2-0.2,2.7-0.6,4.2
				c-0.4,1.5-0.9,3-1.5,4.5c-0.5,1.1-1,2.1-1.5,3.1C400.8,41,405.3,39.3,406.8,35z"/>
			<path class="st0" d="M394.2,48.3l9.5-5.6c2-1.1,3.2-3.3,3.2-5.5l0-2.3c0,0,0,0,0,0c-1.5,4.3-6.1,6-9.1,7.3
				c-0.9,1.8-1.9,3.4-2.7,4.7C394.7,47.5,394.5,48,394.2,48.3z"/>
			<path class="st1" d="M394.2,48.3l9.5-5.6c2-1.1,3.2-3.3,3.2-5.5l0-2.3c0,0,0,0,0,0c-1.5,4.3-6.1,6-9.1,7.3
				c-0.9,1.8-1.9,3.4-2.7,4.7C394.7,47.5,394.5,48,394.2,48.3z"/>
		</g>
		<g>
			<path class="st2" d="M393.4,39.4c-0.1,0-0.2,0.1-0.4,0.1c-0.5,0.1-1.1,0.2-1.7,0.2c-0.5,0.2-1,0.3-1.6,0.5
				c-2.1,0.6-5,1.2-7.9,1.4c-0.5,0-0.9,0.1-1.3,0.1c0.3,0.1,0.5,0.3,0.7,0.4c0,0,0,0,0,0c2.7,1.3,5.9,2.1,9.9,2.1
				c2.3,0,4.3-0.6,6.2-1.6c0.6-1.1,1.1-2.3,1.6-3.5c0.6-1.5,1.1-3,1.4-4.5c0.3-1.3,0.4-2.5,0.4-3.6
				C400.2,34.9,397.5,38.4,393.4,39.4z"/>
			<path class="st0" d="M380.5,41.7c0.5,0,0.9,0,1.4-0.1c2.9-0.2,5.8-0.8,7.9-1.4c0.6-0.2,1.1-0.3,1.6-0.5c-0.2,0-0.5,0-0.7,0
				c-11.1-0.2-11.4-12.7-18.5-14.4c-0.3-0.1-0.7-0.2-1.1-0.2l0,8.7C374.2,37.1,377,39.8,380.5,41.7z"/>
			<path class="st3" d="M391.1,44.2c-4,0-7.2-0.8-9.9-2.1c-0.2,0-0.4,0-0.5,0c0.2,0,0.4,0,0.6,0c-0.2-0.1-0.5-0.2-0.7-0.4
				c-1,0-2,0-2.9,0c-1.4-0.1-2.6-0.3-3.7-0.7c-1-0.4-1.8-0.9-2.3-1.3c0,0,0,0,0,0c0,0,0,0.1,0,0.1c0,0,0,0.1,0,0.1
				c0.5,1.3,1.5,2.4,2.7,3.1l11.5,6.6c1,0.5,2,0.8,3.2,0.8c1.1,0,2.2-0.3,3.2-0.9l1.8-1c0,0,0,0,0,0c0.3-0.4,0.5-0.9,0.9-1.4
				c0.7-1.2,1.6-2.7,2.4-4.4C395.4,43.6,393.4,44.2,391.1,44.2z"/>
			<path class="st4" d="M371.6,39.7C371.6,39.7,371.6,39.7,371.6,39.7c0.5,0.5,1.3,1,2.3,1.3c1,0.3,2.3,0.6,3.7,0.7
				c0.9,0.1,1.9,0.1,2.9,0c-3.4-1.9-6.2-4.6-9.3-7.8l0,3.6C371.2,38.2,371.3,39,371.6,39.7z"/>
		</g>
		<g>
			
				<radialGradient id="SVGID_1_" cx="401.4619" cy="40.7248" r="19.4554" fx="401.4555" fy="40.7192" gradientTransform="matrix(9.100461e-02 -0.9959 0.523 4.778978e-02 343.6297 438.5746)" gradientUnits="userSpaceOnUse">
				<stop  offset="0" style="stop-color:#F78D28;stop-opacity:0"/>
				<stop  offset="1" style="stop-color:#F36C21"/>
			</radialGradient>
			<path class="st5" d="M398.5,42c3.6-1.8,7.2-3.6,8-6.1c0.1-0.3,0.2-0.4,0.4-0.4l0-4.1c-2.5-8.2-8.4-10.3-8-9.9
				C403.3,26.6,402.7,34,398.5,42z"/>
			
				<radialGradient id="SVGID_2_" cx="401.4619" cy="40.7248" r="19.4554" fx="401.4555" fy="40.7192" gradientTransform="matrix(9.100461e-02 -0.9959 0.523 4.778978e-02 343.6297 438.5746)" gradientUnits="userSpaceOnUse">
				<stop  offset="0" style="stop-color:#F78D28;stop-opacity:0"/>
				<stop  offset="1" style="stop-color:#F36C21"/>
			</radialGradient>
			<path class="st6" d="M394.9,47.8c0,0.1-0.1,0.1-0.1,0.2l0.1,0L394.9,47.8z"/>
		</g>
		<path class="st7" d="M406.8,31.3l0-0.6c-0.3-1.3-1-9.5-13.4-12.4c-0.1,0-0.2,0-0.3,0c-0.3,0-0.4,0.1,0.1,0.3
			c4,1.9,6.3,4.8,7.1,7.9c0.4,1.5,0.5,3,0.3,4.4c-0.5,4-3.2,7.4-7.3,8.5c-0.1,0-0.2,0.1-0.4,0.1c-0.6,0.1-1.1,0.2-1.7,0.2
			c-0.2,0-0.4,0-0.5,0c0,0-0.1,0-0.1,0c-11.1-0.2-11.4-12.7-18.5-14.4c-0.3-0.1-0.7-0.2-1.1-0.2l0,8.7l0,3.6c0,0.8,0.2,1.5,0.4,2.2
			c0,0,0,0.1,0,0.1c0,0,0,0.1,0,0.1c0.5,1.3,1.5,2.4,2.7,3.1l11.5,6.6c1,0.5,2,0.8,3.2,0.8c1.1,0,2.2-0.3,3.2-0.9l1.8-1l0.1-0.1
			l0.1-0.1l9.5-5.6c2-1.1,3.2-3.3,3.2-5.5L406.8,31.3z M394,48L394,48l-0.2,0.1l-1.8,1c-0.9,0.5-2,0.8-3,0.8c-1,0-2.1-0.3-3-0.8
			l-11.5-6.6c-1.1-0.6-2-1.7-2.5-2.9c0,0,0,0,0-0.1c0,0,0,0,0,0l0,0c0,0,0,0,0-0.1c-0.3-0.7-0.4-1.4-0.4-2.1l0-3.6l0-8.2
			c0.2,0,0.4,0.1,0.6,0.1c2.9,0.7,4.6,3.3,6.5,6.1c2.6,3.8,5.5,8.2,12.1,8.3c0.1,0,0.1,0,0.2,0c0.2,0,0.4,0,0.6,0
			c0.6,0,1.2-0.1,1.7-0.2c0.1,0,0.2,0,0.2-0.1c0,0,0.1,0,0.1,0c3.2-0.8,5.8-3.2,7-6.3c-0.1,0.4-0.1,0.7-0.2,1.1
			c-0.3,1.5-0.8,3-1.4,4.5c-1.2,3-2.7,5.8-4,7.9c-0.2,0.3-0.3,0.5-0.4,0.7L394,48z M403.5,42.4l-8.8,5.2c0.1-0.2,0.2-0.3,0.3-0.5
			c1.3-2.1,2.9-4.9,4.2-7.9c0.6-1.5,1.2-3,1.5-4.5c0.4-1.5,0.5-2.9,0.6-4.2c0-1.1-0.1-2-0.2-2.7c-0.1-0.5-0.2-0.9-0.3-1.4
			c-0.8-2.9-2.8-5.5-5.7-7.2c4.8,1.5,10.1,4.6,11.3,11.4c0,0.1,0,0.2,0,0.2l0,0.6l0,5.9C406.5,39.4,405.3,41.4,403.5,42.4z"/>
	</g>
	<g>
		<path class="st8" d="M406.8,24c0-2.3-1.2-4.4-3.2-5.5l-11.5-6.6c-0.9-0.5-1.9-0.8-2.9-0.8c0,0,0,0-0.1,0c0,0,0,0-0.1,0
			c0,0,0,0-0.1,0c0,0,0,0-0.1,0c0,0,0,0-0.1,0c0,0,0,0-0.1,0c0,0,0,0-0.1,0c0,0,0,0,0,0c0,0,0,0,0,0c-1,0-2.1,0.3-3,0.8l-11.4,6.7
			c-0.9,0.5-1.6,1.2-2.1,2.1c0,0,0,0-0.1,0.1l0,0c0,0,0,0.1-0.1,0.1c0,0,0,0,0,0.1c0,0,0,0,0,0c-0.6,1-0.9,2.1-0.9,3.2l0,0.9
			l0.1,12.3c0,2.3,1.2,4.4,3.2,5.5l11.5,6.6c1,0.5,2,0.8,3.2,0.8c0.3,0,0.6,0,0.8-0.1c0,0,0,0,0,0c0.1,0,0.2,0,0.4-0.1
			c0,0,0.1,0,0.1,0c0.1,0,0.2,0,0.3-0.1c0.1,0,0.1,0,0.2,0c0.1,0,0.2,0,0.2-0.1c0.1,0,0.1,0,0.2-0.1c0.1,0,0.1-0.1,0.2-0.1
			c0.1,0,0.1-0.1,0.2-0.1c0.1,0,0.1-0.1,0.2-0.1c0.1,0,0.1-0.1,0.2-0.1c0.1,0,0.1-0.1,0.2-0.1c-1.5,0.7-2.4,0.3-3.3-0.2c0,0,0,0,0,0
			l-0.3-0.2c0,0,0,0-0.1,0l0,0l-11.1-7.7c-2-1.4-3.3-3.6-3.5-6.1l-0.4-4.6l-0.4-5l-0.3-4.1c0.3-0.6,0.8-1.1,1.3-1.6l13.2-7.6
			c0.5-0.2,1-0.2,1.6-0.2c0.1,0,0.2,0,0.3,0l11.2,7.8c1.3,0.9,2.3,2.2,2.9,3.6c3,3.1,3.3,6.5,3.5,7.2l0,0l0,0L406.8,24z"/>
		<g>
			<path class="st0" d="M383,20.3c-0.3,0.1-0.6,0.1-0.9,0.2c-0.5,0-0.8-0.1-1-0.4c-0.2-0.2-0.2-0.4-0.2-0.5c0.1-0.4,0.8-0.8,1.8-1.2
				c1.1-0.3,2.5-0.5,4.2-0.6c0.8,0,1.6,0,2.5,0c0,0,0,0,0,0c-0.4,0.1-0.9,0.2-1.3,0.3c-0.4,0.1-0.8,0.3-1.2,0.4
				c-0.5,0.2-1,0.5-1.6,0.7C384.6,19.7,383.7,20.1,383,20.3z"/>
			<path class="st7" d="M382.8,18.6c1.1-0.3,2.5-0.5,4.2-0.6c0.4,0,0.9,0,1.4,0c-0.1,0-0.1,0-0.2,0.1c-0.4,0.1-0.8,0.3-1.2,0.4
				c-0.5,0.2-1,0.5-1.6,0.8c-0.8,0.4-1.7,0.8-2.4,1.1c-0.3,0.1-0.6,0.1-0.8,0.2c-0.4,0-0.7-0.1-0.9-0.3c-0.2-0.2-0.1-0.4-0.1-0.4
				C381.1,19.5,381.4,19,382.8,18.6 M382.8,18.3c-1.8,0.5-2.3,1.3-1.7,1.9c0.3,0.3,0.7,0.4,1.1,0.4c0.3,0,0.6-0.1,0.9-0.2
				c1.3-0.4,2.8-1.3,4.1-1.8c0.4-0.2,0.8-0.3,1.1-0.4c0.5-0.1,0.9-0.2,1.3-0.3c0.2,0,0.4-0.1,0.6-0.1c0.1,0,0.2,0,0.3-0.1
				c0,0,0.1,0,0.1,0c0,0,0-0.1-0.3-0.1c-1.1,0-2.2,0-3.1,0C385.2,17.8,383.8,18,382.8,18.3L382.8,18.3z"/>
		</g>
	</g>
</g>
<g>
	<path class="st9" d="M57.4,87.5V57.8L41.6,87.5h-2.2L23.3,57.8v29.8h-4.4V50.2h5.5l16.1,30.4l16-30.4h5.4v37.3H57.4z"/>
	<path class="st9" d="M103.1,87.5L97.6,77H75.1l-5.5,10.6h-5.3l19.8-37.3h4.5l20.1,37.3H103.1z M86.3,55.4l-9.4,17.8h18.9L86.3,55.4
		z"/>
	<path class="st9" d="M144.4,87.5L129,71.1l-15.4,16.4h-5.8l18-19l-17.7-18.3h6.1l14.9,15.7L144,50.2h5.8l-17.6,18.4l18,18.9H144.4z
		"/>
	<path class="st10" d="M182.3,87.5l-23.2-26.2v26.2h-6.7V50.2h6.9l22.9,27.2V50.2h6.6v37.3H182.3z"/>
	<path class="st10" d="M217.7,69.2c-1.4,2.4-3.6,3.3-6,3.3c-5.6,0-6.8-3.8-11.7-3.8c-3.6,0-5.3,2.7-6,4v-5c1.4-2.4,3.6-3.3,6-3.3
		c5.4,0,6.5,3.8,11.7,3.8c3.4,0,5.3-2.7,6-4V69.2z"/>
	<path class="st10" d="M229.8,72.5v15h-6.8V50.2h30.3v6.2h-23.5v10.4h21v5.7H229.8z"/>
	<path class="st10" d="M286.1,50.2h6.8v22.9c0,11.5-9,15.2-18.3,15.2c-9.3,0-18.3-3.7-18.3-15.2V50.2h6.7v22.7
		c0,6.3,4.4,9.3,11.6,9.3c7.1,0,11.5-3,11.5-9.3V50.2z"/>
	<path class="st10" d="M297.4,87.5l-1.3-5.3l23.2-25.6h-22l0.3-6.4h30.2l1.7,4.6l-23,26.2h22.5v6.5H297.4z"/>
	<path class="st10" d="M333.2,87.5V50.2h30.5v6.1H340v9.3h21.1V71H340v10.2h24.3v6.3H333.2z"/>
</g>
<g>
	<path d="M369.4,80.4h5.6V81h-2.5v6.5h-0.7V81h-2.5V80.4z"/>
	<path d="M376.2,80.4h1l2.4,6.2l2.4-6.2h1v7.1h-0.7v-6.1h0l-2.4,6.1h-0.6l-2.4-6.1h0v6.1h-0.7V80.4z"/>
</g>
<g>
	<path d="M18.1,103.8h1.7l9.8,11.9h0v-11.9h1.4v14h-1.7l-9.8-11.9h0v11.9h-1.4V103.8z"/>
	<path d="M47.4,112.4c0,2.5-0.7,5.8-6.2,5.8c-5.5,0-6.2-3.2-6.2-5.8v-8.6h1.4v8.6c0,3.7,2.4,4.4,4.8,4.4c2.4,0,4.8-0.8,4.8-4.4v-8.6
		h1.4V112.4z"/>
	<path d="M55.4,105.1h-5.5v-1.3h12.4v1.3h-5.5v12.6h-1.4V105.1z"/>
	<path d="M65,103.8h7.6c2.4,0,4.5,0.8,4.5,3.8c0,1.5-0.9,3-2.7,3.4v0c2,0.3,2.4,1.6,2.5,3.9c0,0.9,0.2,2.6,0.5,2.9h-1.6
		c-0.3-0.3-0.4-1.3-0.4-2.9c0-2.5-1-3.3-3.4-3.3h-5.6v6.1H65V103.8z M66.4,110.3h6.1c1.6,0,3-0.6,3-2.7c0-2.1-1.5-2.4-2.9-2.4h-6.3
		V110.3z"/>
	<path d="M80.6,103.8H82v14h-1.4V103.8z"/>
	<path d="M90.1,105.1h-5.5v-1.3H97v1.3h-5.5v12.6h-1.4V105.1z"/>
	<path d="M99.6,103.8h1.4v14h-1.4V103.8z"/>
	<path d="M112,103.5c4,0,7.6,2.4,7.6,7.3c0,4.9-3.6,7.3-7.6,7.3c-4,0-7.6-2.4-7.6-7.3C104.4,105.9,108,103.5,112,103.5z M112,116.8
		c3.1,0,6-1.8,6-6c0-4.2-3-6-6-6c-3.1,0-6,1.8-6,6C106,115,108.9,116.8,112,116.8z"/>
	<path d="M122.8,103.8h1.7l9.8,11.9h0v-11.9h1.4v14h-1.7l-9.8-11.9h0v11.9h-1.4V103.8z"/>
	<path d="M148.9,113.5h-7.4l-1.9,4.2h-1.6l6.3-14h1.7l6.3,14h-1.7L148.9,113.5z M145.3,105.3l-3.1,6.9h6.2L145.3,105.3z"/>
	<path d="M154.8,103.8h1.4v12.6h8.9v1.3h-10.3V103.8z"/>
	<path d="M174.5,103.8h7.6c2.4,0,4.5,0.8,4.5,3.8c0,1.5-0.9,3-2.7,3.4v0c2,0.3,2.4,1.6,2.5,3.9c0,0.9,0.2,2.6,0.5,2.9h-1.6
		c-0.3-0.3-0.4-1.3-0.4-2.9c0-2.5-1-3.3-3.4-3.3h-5.6v6.1h-1.4V103.8z M175.9,110.3h6.1c1.6,0,3-0.6,3-2.7c0-2.1-1.5-2.4-2.9-2.4
		h-6.3V110.3z"/>
	<path d="M190.1,103.8h11.1v1.3h-9.7v4.7h9.3v1.3h-9.3v5.2h9.8v1.3h-11.3V103.8z"/>
	<path d="M204.7,103.8h7.5c2.2,0,4.2,1.1,4.2,4c0,2.6-1.7,4.1-4.9,4.1h-5.4v5.9h-1.4V103.8z M206.2,110.6h5.6c2.4,0,3.1-1.1,3.1-2.7
		c0-2.1-1.2-2.7-2.8-2.7h-5.9V110.6z"/>
	<path d="M219.4,103.8h1.4v12.6h8.9v1.3h-10.3V103.8z"/>
	<path d="M232.5,103.8h11.1v1.3h-9.7v4.7h9.3v1.3h-9.3v5.2h9.8v1.3h-11.3V103.8z"/>
	<path d="M246.8,103.8h1.7l9.8,11.9h0v-11.9h1.4v14h-1.7l-9.8-11.9h0v11.9h-1.4V103.8z"/>
	<path d="M263.7,103.8h1.4v14h-1.4V103.8z"/>
	<path d="M278.5,107.8c-0.2-2.4-2.1-3-4.4-3c-2.3,0-4,0.9-4,2.5c0,1.8,1.7,2.2,5.1,2.8c2.5,0.4,5.1,1,5.1,3.7c0,3.4-3.1,4.4-5.8,4.4
		c-3.5,0-6.1-1.2-6.3-5h1.4c0.3,2.9,2.2,3.6,4.9,3.6c2.1,0,4.3-0.6,4.3-2.8c0-2.1-2.5-2.4-5.1-2.8c-3.3-0.5-5.1-1.5-5.1-3.7
		c0-3.1,2.8-4,5.5-4c2.9,0,5.7,1,5.8,4.3H278.5z"/>
	<path d="M283.3,103.8h1.4v5.9h10.1v-5.9h1.4v14h-1.4v-6.7h-10.1v6.7h-1.4V103.8z"/>
	<path d="M314.6,103.8h2.1v14h-1.4v-12.1h0l-6.2,12.1h-1.3l-6.1-12.1h0v12.1h-1.4v-14h2.1l6.2,12.1L314.6,103.8z"/>
	<path d="M320.7,103.8h11.1v1.3h-9.7v4.7h9.3v1.3h-9.3v5.2h9.8v1.3h-11.3V103.8z"/>
	<path d="M335,103.8h1.7l9.8,11.9h0v-11.9h1.4v14h-1.7l-9.8-11.9h0v11.9H335V103.8z"/>
	<path d="M355.9,105.1h-5.5v-1.3h12.4v1.3h-5.5v12.6h-1.4V105.1z"/>
</g>
</svg>
